<?xml version="1.0" encoding="UTF-8" standalone="no"?>
<svg
   xmlns:osb="http://www.openswatchbook.org/uri/2009/osb"
   xmlns:dc="http://purl.org/dc/elements/1.1/"
   xmlns:cc="http://creativecommons.org/ns#"
   xmlns:rdf="http://www.w3.org/1999/02/22-rdf-syntax-ns#"
   xmlns:svg="http://www.w3.org/2000/svg"
   xmlns="http://www.w3.org/2000/svg"
   id="svg872"
   xml:space="preserve"
   enable-background="new 0 0 299.65 396.757"
   viewBox="0 0 310.00001 408.00001"
   height="408"
   width="310"
   y="0px"
   x="0px"
   version="1.1"><metadata
     id="metadata878"><rdf:RDF><cc:Work
         rdf:about=""><dc:format>image/svg+xml</dc:format><dc:type
           rdf:resource="http://purl.org/dc/dcmitype/StillImage" /><dc:title></dc:title></cc:Work></rdf:RDF></metadata><defs
     id="defs876"><linearGradient
       osb:paint="solid"
       id="linearGradient897"><stop
         id="stop895"
         offset="0"
         style="stop-color:#ffffff;stop-opacity:1;" /></linearGradient></defs><g
     transform="translate(0,11.243012)"
     style="display:inline"
     id="layer4"><path
       id="rect861"
       d="m 134.86914,276.70898 c 0,39.01628 0,78.03256 0,117.04883 11.67643,0 23.35287,0 35.0293,0 0,-39.68294 0,-79.36588 0,-119.04883 -11.67643,0 -23.35287,0 -35.0293,0 v 1 z"
       style="fill:#653614;stroke:#ffffff;stroke-width:4;stroke-miterlimit:4;stroke-dasharray:none;stroke-opacity:1" /></g><g
     transform="translate(0,11.243012)"
     style="display:inline"
     id="layer5"><path
       id="path864"
       d="m 217.5,-2.0371094 c -0.34199,4.2961979 2.02414,10.7325084 -4.39685,10.1070609 -14.52897,3.0364945 -31.14978,9.6263935 -36.13831,25.0335645 -4.89006,9.698801 0.15618,4.977964 5.35547,0.5 12.31507,-7.300735 28.01334,-1.236416 38.09963,7.321002 22.3806,20.276594 32.27182,50.67094 35.06639,79.817672 2.5765,32.67318 0.36203,67.77234 -18.55754,95.85731 -15.1632,22.63728 -41.66774,34.99333 -68.00691,38.80675 -0.002,6.73503 -0.0183,13.47005 -0.0273,20.20508 36.66517,-3.07186 74.41114,-16.15217 99.08985,-44.61719 26.98085,-30.65551 40.91626,-72.01576 38.45513,-112.74118 -1.19,-37.210159 -15.84044,-75.377325 -45.37517,-99.165105 C 248.09853,8.603049 233.15591,0.71517221 217.5,-4.9296875 c 0,0.9641927 0,1.9283854 0,2.8925781 z"
       style="fill:#f26739;stroke:#ffffff;stroke-width:4;stroke-miterlimit:4;stroke-dasharray:none;stroke-opacity:1" /></g><g
     transform="translate(0,11.243012)"
     id="layer6"><path
       id="path869"
       d="M 121.24414,-6.9648438 C 88.84881,-5.8613534 56.948687,8.3342827 35.596163,32.932299 10.432764,60.312668 1.1606273,98.839177 3.2221798,135.25682 c 1.209867,37.35711 14.8115422,75.27201 42.3500862,101.30568 28.805955,28.34077 70.417284,41.22133 110.296874,39.14648 4.63648,-1.37387 15.47323,3.46082 14.03223,-3.99804 0.30399,-64.82758 -0.20102,-129.7425 0.50683,-194.517581 0.67764,-17.9279 2.07862,-36.756855 12.02149,-52.21875 C 191.17315,14.011049 205.65848,10.660468 218.5,7.9511719 217.25452,3.7337506 221.45837,-4.9783877 215.47266,-5.2851562 195.42306,-9.4444478 172.47678,-6.2284667 157.57452,8.8568049 145.12103,19.841693 137.58269,35.727495 136.74299,52.290748 c -3.47084,37.635485 -1.2232,75.506042 -1.87385,113.240502 0,29.80143 0,59.60286 0,89.4043 C 107.76708,248.17062 84.629129,228.52996 73.734375,202.89648 58.792324,168.58789 58.07854,129.89404 61.630491,93.429296 64.950145,64.560885 74.909765,32.677334 100.87305,16.259766 c 6.88263,-4.39301 14.57366,-7.4015496 22.48242,-9.3554691 -1.24742,-3.5648658 2.61682,-14.2528619 -2.11133,-13.8691407 z"
       style="fill:#6bbe45;stroke:#ffffff;stroke-width:4;stroke-miterlimit:4;stroke-dasharray:none;stroke-opacity:1" /></g></svg>